<svg xmlns="http://www.w3.org/2000/svg" viewBox="0 0 191.71 47.46" width="64" height="64"><rect width="191.71" height="47.46" fill="#0a0a0a"/><g fill="#fff" transform="translate(8 0) scale(0.92)"><path d="M26.33,22.58c2.84-2.12,4.34-5.44,4.34-9.65C30.67,5,25,0,15.88,0H0V47.46H20.79c9,0,14.85-5.23,14.85-13.32a11.69,11.69,0,0,0-4-8.54A14,14,0,0,0,26.33,22.58Zm-9.82-2.34H7V6.59h8.65c5,0,7.95,2.48,7.95,6.8C23.63,17.55,20.84,20.25,16.51,20.25ZM28.61,33.76c0,4.52-2.87,7.12-7.88,7.12H7v-14H18.57C23.56,26.94,28.61,29.36,28.61,33.76Z"/><polygon points="68.58 21.21 55.16 0 46.91 0 64.88 28.47 54.93 47.47 63.03 47.47 87.24 0 79.42 0 68.58 21.21"/><polygon points="110.39 0 103.35 0 103.35 47.47 135.88 47.47 135.88 40.62 110.39 40.62 110.39 0"/><path d="M167.47,0H152.75V47.46h14.73c15.92,0,24.24-11.94,24.24-23.73S183.39,0,167.47,0Zm17.14,23.73c0,8.23-5.46,17.08-17.46,17.08h-7.37V6.65h7.37C179.15,6.65,184.62,15.51,184.62,23.73Z"/></g></svg>
