<?xml version="1.0" encoding="utf-8"?>
<svg version="1.1" xmlns="http://www.w3.org/2000/svg" xmlns:xlink="http://www.w3.org/1999/xlink" x="0px" y="0px" width="400px" height="77px" viewBox="0 0 400 77.2" xml:space="preserve" fill="black">
	<path d="M204.5,0.4c-4.3,1.5-5.4,7.2-2.1,10.3c4,3.8,10.4,1,10.4-4.5C212.7,1.8,208.6-1.1,204.5,0.4L204.5,0.4z M204.5,0.4"/>
	<path d="M258.8,0.6c-2.5,1.1-3.7,3-3.7,5.7c0,6.5,8.7,8.7,11.6,2.8C269.3,3.9,264-1.8,258.8,0.6L258.8,0.6z M258.8,0.6"/>
	<path d="M26.5,1.6c-0.1,0.3-5.9,16.6-13,36.4S0.6,74.2,0.4,74.8L0,75.9h39.4v-8.6H26.2c-10.5,0-13.2-0.1-13.1-0.4 c0.1-0.3,4.8-14,9.2-27.2c7.6-22.4,9.2-27,9.3-27c0.1,0,1.3,3.6,2.8,8c1.5,4.4,4.9,14.7,7.7,22.9c2.8,8.2,6.4,18.8,8,23.5l2.9,8.7 h10.4l-1.3-3.8c-0.8-2.1-6.6-18.8-13-37.1C42.8,16.6,37.4,1.5,37.4,1.4c-0.1-0.2-2.2-0.3-5.4-0.3C27.2,1.1,26.7,1.1,26.5,1.6 L26.5,1.6z M26.5,1.6"/>
	<path d="M150.1,38.5v37.4h8.9l0.1-16.6c0.1-14.8,0.1-16.8,0.6-18.2c0.8-2.5,2-4.8,3.6-6.5c2.7-2.8,5.5-3.9,9.9-3.9 c6.3,0,9.5,2.4,11.1,8.4c0.4,1.6,0.5,3.9,0.6,19.4l0.1,17.6l4.5-0.1l4.5-0.1V59.7c0-18.1-0.1-21.9-0.9-25 c-2.2-8.4-8.3-12.5-18.1-12.1c-4,0.1-6.3,0.8-9.2,2.4c-1.8,1-4.4,3.4-5.9,5.3l-0.7,1l0-15.1V1.1h-8.9V38.5z M150.1,38.5"/>
	<path d="M228.8,15.3v8.3h-10.3v7.5l5.1,0.1l5.1,0.1l0.1,22.3l0.1,22.3h8.9l0.1-22.3l0.1-22.3l5.8-0.1l5.8-0.1v-7.5 h-11.7V6.9h-8.9V15.3z M228.8,15.3"/>
	<path d="M92.1,22.5c-2.1,0.3-4.8,1.3-6.7,2.4c-2.8,1.7-5.5,4.6-6.4,7c-0.3,0.9-0.4,0.6-0.4-3.6l0-4.6h-9.2v52.3h9.2 v-15c0-17,0-17.2,2.1-21.4c2-4.1,5.1-6.8,9.1-8c1.6-0.4,6.6-0.6,7.1-0.3c0.2,0.1,0.3-1.4,0.3-4.3v-4.4l-1.4-0.2 C94.2,22.2,94.1,22.2,92.1,22.5L92.1,22.5z M92.1,22.5"/>
	<path d="M395.4,22.4c-0.3,0.1-1.3,0.2-2.1,0.4c-4.7,0.9-9.6,4.6-11.5,8.8l-0.6,1.4l-0.1-4.7l-0.1-4.6h-8.9v52.3h8.9 l0.1-15.2c0.1-17,0.1-16.7,2.1-21c2.7-5.6,7.3-8.5,13.4-8.5c1.5,0,2.8,0.1,3,0.2c0.2,0.1,0.3-1.3,0.3-4.3v-4.4l-1.4-0.2 C397,22.2,396.3,22.2,395.4,22.4L395.4,22.4z M395.4,22.4"/>
	<path d="M116.7,23c-4.8,1-8.3,3-11.7,6.4c-5.2,5.3-7.9,13.3-7.4,22.2c0.4,8.6,3,15,7.9,19.5c2.5,2.3,4.4,3.4,7.8,4.6 c10.3,3.5,22,0.6,28.1-6.9c1.4-1.7,3.3-4.8,3.1-5c-0.5-0.5-7.1-3.5-7.1-3.3c-0.1,0.1-0.6,1-1.1,2c-1.8,3.1-4.9,5.4-8.8,6.6 c-2.3,0.7-7.2,0.7-9.3,0c-5-1.7-8.6-5.7-10.3-11.6c-0.9-3.1-1.1-10.2-0.3-13.9c1.8-8.5,7.3-13.5,14.9-13.5 c6.1,0,10.8,3.1,13.4,8.6c0.4,0.9,0.9,1.6,1,1.6c0.1,0,1.8-0.8,3.8-1.9l3.6-1.8l-0.5-1.2c-0.9-2.1-3-5.2-4.8-6.9 c-2.6-2.5-5.6-4.2-9.8-5.3C126.5,22.4,119.7,22.3,116.7,23L116.7,23z M116.7,23"/>
	<path d="M336.2,22.9c-14.2,3.1-22,17.2-18.8,34c0.6,3.3,1.9,6.8,3.4,9.3c1.5,2.5,5.1,6.1,7.6,7.6 c8.5,5,21.1,4.3,29.3-1.5c3.2-2.3,7.1-6.5,6.6-7.3c-0.1-0.1-1.5-1.2-3.2-2.4l-3-2.1l-0.7,0.9c-0.4,0.5-1.6,1.8-2.7,2.9 c-3.4,3.4-7.4,4.9-12.5,4.9c-8.9,0-15.2-5.9-16.2-15.3l-0.2-2.1H365v-2.2c0-2.9-0.4-6.7-1.1-9.3c-2.4-9.6-8.3-15.7-16.8-17.5 C344,22.4,339,22.3,336.2,22.9L336.2,22.9z M344.7,30.1c4.8,1,8.1,4.1,9.8,9.3c0.4,1.1,0.8,2.8,0.9,3.7l0.2,1.6H341 c-14.3,0-14.6,0-14.6-0.6c0-1.3,0.7-3.6,1.7-5.8C331,32,337.7,28.6,344.7,30.1L344.7,30.1z M344.7,30.1"/>
	<path d="M202.1,49.7v26.1h9.2V23.6h-9.2V49.7z M202.1,49.7"/>
	<path d="M256.6,49.7v26.1h9.2V23.6h-9.2V49.7z M256.6,49.7"/>
	<path d="M274.5,23.8c-0.1,0.1-0.2,1.8-0.2,3.8v3.6l14,0.1l14,0.1L287.7,50L273,68.8v7.1h41.1v-7.5L299,68.3l-15.1-0.1 l30-37.5v-7.1h-19.5C283.5,23.6,274.6,23.7,274.5,23.8L274.5,23.8z M274.5,23.8"/>
</svg>
